<svg width="64" height="64" viewBox="0 0 64 64" fill="none" xmlns="http://www.w3.org/2000/svg">
<rect x="0.5" y="0.5" width="63" height="63" rx="31.5" stroke="#EEEEEE"/>
<g clip-path="url(#clip0_201_18489)">
<path d="M41.3333 21.3333H39.8653C39.2453 18.2947 36.552 16 33.3333 16H30.6667C27.448 16 24.7533 18.2947 24.1347 21.3333H22.6667C18.9907 21.3333 16 24.324 16 28V41.3333C16 45.0093 18.9907 48 22.6667 48H24V28C24 27.2627 24.5973 26.6667 25.3333 26.6667C26.0693 26.6667 26.6667 27.2627 26.6667 28V48H37.3333V28C37.3333 27.2627 37.9293 26.6667 38.6667 26.6667C39.404 26.6667 40 27.2627 40 28V48H41.3333C45.0093 48 48 45.0093 48 41.3333V28C48 24.324 45.0093 21.3333 41.3333 21.3333ZM26.896 21.3333C27.4467 19.7813 28.928 18.6667 30.6667 18.6667H33.3333C35.072 18.6667 36.5533 19.7813 37.104 21.3333H26.896Z" fill="#FE816D"/>
</g>
<defs>
<clipPath id="clip0_201_18489">
<rect width="32" height="32" fill="white" transform="translate(16 16)"/>
</clipPath>
</defs>
</svg>
